<?xml version="1.0" encoding="iso-8859-1"?>
<!-- Generator: Adobe Illustrator 19.0.0, SVG Export Plug-In . SVG Version: 6.00 Build 0)  -->
<svg version="1.1" id="Layer_1" xmlns="http://www.w3.org/2000/svg" xmlns:xlink="http://www.w3.org/1999/xlink" x="0px" y="0px"
	 viewBox="0 0 512 512" style="enable-background:new 0 0 512 512;" xml:space="preserve">
<path style="fill:#E5E5E5;" d="M469.779,422.747H42.221V112.768c0-17.711,14.356-32.067,32.067-32.067h363.424
	c17.71,0,32.067,14.356,32.067,32.067V422.747z"/>
<path style="fill:#458FDE;" d="M469.779,112.768c0-17.711-14.356-32.067-32.067-32.067H74.288c-17.71,0-32.067,14.356-32.067,32.067
	v17.102h427.557V112.768z"/>
<path style="fill:#CCCCCC;" d="M106.355,80.701H74.288c-17.71,0-32.067,14.356-32.067,32.067v309.979h32.067V112.768
	C74.288,95.058,88.644,80.701,106.355,80.701z"/>
<path style="fill:#4F5AA8;" d="M74.288,112.768c0-17.711,14.356-32.067,32.067-32.067H74.288c-17.71,0-32.067,14.356-32.067,32.067
	v17.102h32.067V112.768z"/>
<path style="fill:#458FDE;" d="M8.017,378.388v20.843c0,17.71,14.356,32.067,32.067,32.067h431.833
	c17.711,0,32.067-14.356,32.067-32.067v-20.843H8.017z"/>
<g>
	<path style="fill:#4F5AA8;" d="M42.221,399.232v-20.843H8.017v20.843c0,17.71,14.356,32.067,32.067,32.067h34.205
		C56.578,431.299,42.221,416.942,42.221,399.232z"/>
	<rect x="204.693" y="377.854" style="fill:#4F5AA8;" width="102.614" height="29.929"/>
</g>
<path style="fill:#FF7452;" d="M187.591,288.601h-48.1c-8.855,0-16.033-7.179-16.033-16.033v-36.342
	c0-8.855,7.179-16.033,16.033-16.033h48.1V288.601z"/>
<path style="fill:#E24642;" d="M139.491,220.192c-8.855,0-16.033,7.179-16.033,16.033v36.342c0,8.855,7.179,16.033,16.033,16.033
	h5.344v-68.409H139.491z"/>
<polygon style="fill:#FFD652;" points="298.756,329.219 187.591,288.601 187.591,220.192 298.756,179.574 "/>
<polygon style="fill:#FB9D46;" points="187.591,220.192 187.591,288.601 202.911,294.199 202.911,214.594 "/>
<rect id="SVGCleanerId_0" x="285.929" y="166.747" style="fill:#FB9D46;" width="38.48" height="175.299"/>
<g>
	<rect id="SVGCleanerId_0_1_" x="285.929" y="166.747" style="fill:#FB9D46;" width="38.48" height="175.299"/>
</g>
<rect x="285.929" y="310.161" style="fill:#FF7452;" width="38.48" height="31.888"/>
<rect x="285.929" y="224.649" style="fill:#F7EDBC;" width="38.48" height="36.164"/>
<polygon style="fill:#CCCCCC;" points="170.489,344.184 183.315,344.184 183.315,288.601 153.386,288.601 "/>
<path d="M503.983,371.975h-26.188V112.768c0-22.103-17.981-40.084-40.083-40.084H74.288c-22.103,0-40.084,17.981-40.084,40.084
	v259.207H8.017c-4.427,0-8.017,3.588-8.017,8.017v19.24c0,22.103,17.981,40.083,40.084,40.083h66.271
	c4.427,0,8.017-3.588,8.017-8.017s-3.589-8.017-8.017-8.017H40.084c-13.262,0-24.05-10.789-24.05-24.05v-11.223h180.643v19.775
	c0,4.428,3.589,8.017,8.017,8.017h102.614c4.427,0,8.017-3.588,8.017-8.017v-19.775h180.643v11.223
	c0,13.261-10.788,24.05-24.05,24.05H140.56c-4.427,0-8.017,3.588-8.017,8.017s3.589,8.017,8.017,8.017h331.357
	c22.103,0,40.083-17.981,40.083-40.083v-19.24C512,375.563,508.411,371.975,503.983,371.975z M50.238,140.025h344.718
	c4.427,0,8.017-3.588,8.017-8.017c0-4.428-3.589-8.017-8.017-8.017H50.238v-11.223c0-13.261,10.788-24.05,24.05-24.05h363.424
	c13.262,0,24.05,10.789,24.05,24.05v11.223h-30.463c-4.427,0-8.017,3.588-8.017,8.017c0,4.428,3.589,8.017,8.017,8.017h30.463
	v231.95H50.238V140.025z M299.29,399.766h-86.58v-11.758h86.58V399.766z"/>
<path d="M273.102,98.338h-34.205c-4.427,0-8.017,3.588-8.017,8.017c0,4.428,3.589,8.017,8.017,8.017h34.205
	c4.427,0,8.017-3.588,8.017-8.017C281.119,101.926,277.53,98.338,273.102,98.338z"/>
<path d="M324.409,158.731h-38.48c-4.427,0-8.017,3.588-8.017,8.017v11.907l-91.741,33.521h-46.681
	c-13.262,0-24.05,10.789-24.05,24.05v36.342c0,13.261,10.788,24.05,24.05,24.05h7.974l15.361,49.924
	c1.035,3.363,4.143,5.659,7.662,5.659h12.827c4.427,0,8.017-3.588,8.017-8.017v-45.68l86.58,31.635v11.907
	c0,4.428,3.589,8.017,8.017,8.017h38.48c4.427,0,8.017-3.588,8.017-8.017V166.747C332.426,162.319,328.837,158.731,324.409,158.731z
	 M131.474,272.568v-36.342c0-4.421,3.596-8.017,8.017-8.017h40.083v52.376h-26.188h-13.896
	C135.07,280.585,131.474,276.989,131.474,272.568z M175.299,332.556l-11.058-35.938h11.058V332.556z M195.608,282.996v-57.199
	l82.305-30.072v117.343L195.608,282.996z M316.392,334.029h-22.447V174.764h22.447V334.029z"/>
<path d="M390.681,246.38h-29.929c-4.427,0-8.017,3.588-8.017,8.017s3.589,8.017,8.017,8.017h29.929c4.427,0,8.017-3.588,8.017-8.017
	S395.108,246.38,390.681,246.38z"/>
<path d="M360.756,211.106c1.81,0,3.63-0.609,5.127-1.858l25.653-21.378c3.401-2.834,3.861-7.889,1.026-11.291
	s-7.891-3.86-11.291-1.026l-25.653,21.378c-3.401,2.834-3.861,7.89-1.026,11.291C356.179,210.124,358.459,211.106,360.756,211.106z"
	/>
<path d="M391.537,320.922l-25.653-21.378c-3.401-2.835-8.456-2.374-11.291,1.026c-2.835,3.402-2.375,8.457,1.026,11.291
	l25.653,21.378c1.499,1.25,3.318,1.858,5.127,1.858c2.297,0,4.577-0.982,6.163-2.884
	C395.399,328.812,394.938,323.757,391.537,320.922z"/>
<g>
</g>
<g>
</g>
<g>
</g>
<g>
</g>
<g>
</g>
<g>
</g>
<g>
</g>
<g>
</g>
<g>
</g>
<g>
</g>
<g>
</g>
<g>
</g>
<g>
</g>
<g>
</g>
<g>
</g>
</svg>
