<svg xmlns="http://www.w3.org/2000/svg"  viewBox="0 0 64 64" width="64px" height="64px"><linearGradient id="b9s7EqZHHAIViuo3IcixXa" x1="48.639" x2="48.639" y1=".872" y2="61.139" gradientUnits="userSpaceOnUse"><stop offset="0" stop-color="#1a6dff"/><stop offset="1" stop-color="#c822ff"/></linearGradient><path fill="url(#b9s7EqZHHAIViuo3IcixXa)" d="M49.61,58.469c-0.46-0.108-0.923-0.198-1.387-0.291c-0.253-0.05-0.506-0.097-0.789-0.151 c0,0.783-0.005,1.512,0.006,2.241c0.001,0.077,0.079,0.207,0.143,0.222c0.738,0.177,1.48,0.337,2.261,0.511 c0-0.798,0.005-1.571-0.01-2.343C49.832,58.59,49.698,58.49,49.61,58.469z"/><linearGradient id="b9s7EqZHHAIViuo3IcixXb" x1="33.586" x2="33.586" y1=".872" y2="61.139" gradientUnits="userSpaceOnUse"><stop offset="0" stop-color="#1a6dff"/><stop offset="1" stop-color="#c822ff"/></linearGradient><path fill="url(#b9s7EqZHHAIViuo3IcixXb)" d="M34.798,7.765c0.01-0.701,0.006-1.402,0.006-2.132c-0.847,0.09-1.642,0.174-2.437,0.258 c0,0.759,0,1.483,0,2.239c0.775-0.073,1.529-0.141,2.282-0.221C34.706,7.904,34.798,7.817,34.798,7.765z"/><linearGradient id="b9s7EqZHHAIViuo3IcixXc" x1="30.541" x2="30.541" y1=".872" y2="61.139" gradientUnits="userSpaceOnUse"><stop offset="0" stop-color="#1a6dff"/><stop offset="1" stop-color="#c822ff"/></linearGradient><path fill="url(#b9s7EqZHHAIViuo3IcixXc)" d="M30.996,55.762c-0.548-0.052-1.097-0.088-1.664-0.132H29.33c0,0.759,0,1.473,0,2.222 c0.805,0.066,1.594,0.13,2.423,0.198c0-0.508,0-0.985,0-1.463C31.753,55.838,31.753,55.833,30.996,55.762z"/><linearGradient id="b9s7EqZHHAIViuo3IcixXd" x1="48.614" x2="48.614" y1=".872" y2="61.139" gradientUnits="userSpaceOnUse"><stop offset="0" stop-color="#1a6dff"/><stop offset="1" stop-color="#c822ff"/></linearGradient><path fill="url(#b9s7EqZHHAIViuo3IcixXd)" d="M48.408,54.933c0.467,0.088,0.936,0.168,1.411,0.251c0-0.764,0-1.475,0-2.196 c-0.792-0.13-1.561-0.256-2.387-0.39c0,0.213-0.001,0.41-0.001,0.599c0,0.189,0,0.372,0.003,0.554 c0.004,0.245-0.052,0.54-0.01,0.762c0.014,0.074,0.038,0.14,0.079,0.193C47.651,54.898,48.093,54.874,48.408,54.933z"/><linearGradient id="b9s7EqZHHAIViuo3IcixXe" x1="51.634" x2="51.634" y1=".872" y2="61.139" gradientUnits="userSpaceOnUse"><stop offset="0" stop-color="#1a6dff"/><stop offset="1" stop-color="#c822ff"/></linearGradient><path fill="url(#b9s7EqZHHAIViuo3IcixXe)" d="M50.461,55.309v0.001c0.782,0.158,1.556,0.313,2.346,0.472V55.78c0-0.76,0-1.489,0-2.254 c-0.79-0.144-1.558-0.283-2.346-0.425C50.461,53.855,50.461,54.57,50.461,55.309z"/><linearGradient id="b9s7EqZHHAIViuo3IcixXf" x1="51.627" x2="51.627" y1=".872" y2="61.139" gradientUnits="userSpaceOnUse"><stop offset="0" stop-color="#1a6dff"/><stop offset="1" stop-color="#c822ff"/></linearGradient><path fill="url(#b9s7EqZHHAIViuo3IcixXf)" d="M52.804,7.644c-0.001-0.744-0.001-1.471-0.001-2.253c-0.745,0.165-1.475,0.325-2.203,0.494 c-0.059,0.014-0.143,0.095-0.144,0.146C50.447,6.723,50.45,7.414,50.45,8.13h0.001c-0.001,0-0.001,0.002-0.001,0.002 C51.261,7.964,52.026,7.805,52.804,7.644z"/><linearGradient id="b9s7EqZHHAIViuo3IcixXg" x1="33.575" x2="33.575" y1=".872" y2="61.139" gradientUnits="userSpaceOnUse"><stop offset="0" stop-color="#1a6dff"/><stop offset="1" stop-color="#c822ff"/></linearGradient><path fill="url(#b9s7EqZHHAIViuo3IcixXg)" d="M32.367,53.384c0,0.69,0,1.323,0,1.977v0.001c0.806,0.076,1.595,0.15,2.416,0.228 c0-0.697,0-1.339,0-2.001v-0.001c-0.82-0.069-1.616-0.137-2.416-0.206V53.384z"/><linearGradient id="b9s7EqZHHAIViuo3IcixXh" x1="45.63" x2="45.63" y1=".872" y2="61.139" gradientUnits="userSpaceOnUse"><stop offset="0" stop-color="#1a6dff"/><stop offset="1" stop-color="#c822ff"/></linearGradient><path fill="url(#b9s7EqZHHAIViuo3IcixXh)" d="M46.831,3.673c-0.54,0.107-1.059,0.209-1.577,0.315C44.428,4.159,44.428,4.16,44.428,5 c0,0.507,0,1.012,0,1.548c0.838-0.155,1.617-0.299,2.402-0.444C46.831,5.262,46.831,4.478,46.831,3.673z"/><linearGradient id="b9s7EqZHHAIViuo3IcixXi" x1="45.631" x2="45.631" y1=".872" y2="61.139" gradientUnits="userSpaceOnUse"><stop offset="0" stop-color="#1a6dff"/><stop offset="1" stop-color="#c822ff"/></linearGradient><path fill="url(#b9s7EqZHHAIViuo3IcixXi)" d="M44.436,59.682c0.001,0.066,0.079,0.177,0.139,0.189c0.743,0.158,1.49,0.303,2.257,0.454 c0-0.821,0-1.615,0-2.431c-0.792-0.145-1.572-0.287-2.402-0.44C44.43,58.246,44.426,58.965,44.436,59.682z"/><linearGradient id="b9s7EqZHHAIViuo3IcixXj" x1="36.606" x2="36.606" y1=".872" y2="61.139" gradientUnits="userSpaceOnUse"><stop offset="0" stop-color="#1a6dff"/><stop offset="1" stop-color="#c822ff"/></linearGradient><path fill="url(#b9s7EqZHHAIViuo3IcixXj)" d="M35.408,58.438c0.806,0.103,1.591,0.206,2.396,0.309c0-0.782,0-1.528,0-2.297 c-0.803-0.095-1.589-0.185-2.396-0.28C35.408,56.943,35.408,57.67,35.408,58.438z"/><linearGradient id="b9s7EqZHHAIViuo3IcixXk" x1="36.61" x2="36.61" y1=".872" y2="61.139" gradientUnits="userSpaceOnUse"><stop offset="0" stop-color="#1a6dff"/><stop offset="1" stop-color="#c822ff"/></linearGradient><path fill="url(#b9s7EqZHHAIViuo3IcixXk)" d="M37.804,5.251c-0.815,0.106-1.607,0.209-2.388,0.311c0,0.772,0,1.507,0,2.268 c0.814-0.096,1.6-0.189,2.388-0.281C37.804,6.767,37.804,6.02,37.804,5.251z"/><linearGradient id="b9s7EqZHHAIViuo3IcixXl" x1="27.492" x2="27.492" y1=".872" y2="61.139" gradientUnits="userSpaceOnUse"><stop offset="0" stop-color="#1a6dff"/><stop offset="1" stop-color="#c822ff"/></linearGradient><path fill="url(#b9s7EqZHHAIViuo3IcixXl)" d="M28.694,6.198c-0.807,0.044-1.59,0.087-2.404,0.131c0,0.755,0,1.475,0,2.214 c0.824-0.047,1.614-0.092,2.404-0.137C28.694,7.653,28.694,6.938,28.694,6.198z"/><linearGradient id="b9s7EqZHHAIViuo3IcixXm" x1="21.398" x2="21.398" y1=".872" y2="61.139" gradientUnits="userSpaceOnUse"><stop offset="0" stop-color="#1a6dff"/><stop offset="1" stop-color="#c822ff"/></linearGradient><path fill="url(#b9s7EqZHHAIViuo3IcixXm)" d="M20.196,57.511c0.808,0,1.598,0,2.404,0c0-0.707,0-1.42,0-2.166c-0.803,0-1.594,0-2.404,0 C20.196,56.045,20.196,56.747,20.196,57.511z"/><linearGradient id="b9s7EqZHHAIViuo3IcixXn" x1="24.443" x2="24.443" y1=".872" y2="61.139" gradientUnits="userSpaceOnUse"><stop offset="0" stop-color="#1a6dff"/><stop offset="1" stop-color="#c822ff"/></linearGradient><path fill="url(#b9s7EqZHHAIViuo3IcixXn)" d="M23.243,57.586c0.825,0,1.613,0,2.4,0c0-0.712,0-1.416,0-2.169c-0.807,0-1.596,0-2.4,0 C23.243,56.112,23.243,56.815,23.243,57.586z"/><linearGradient id="b9s7EqZHHAIViuo3IcixXo" x1="21.402" x2="21.402" y1=".872" y2="61.139" gradientUnits="userSpaceOnUse"><stop offset="0" stop-color="#1a6dff"/><stop offset="1" stop-color="#c822ff"/></linearGradient><path fill="url(#b9s7EqZHHAIViuo3IcixXo)" d="M22.6,6.493c-0.81,0-1.6,0-2.395,0c0,0.746,0,1.456,0,2.16c0.812,0,1.594,0,2.395,0 C22.6,7.898,22.6,7.194,22.6,6.493z"/><linearGradient id="b9s7EqZHHAIViuo3IcixXp" x1="48.647" x2="48.647" y1=".872" y2="61.139" gradientUnits="userSpaceOnUse"><stop offset="0" stop-color="#1a6dff"/><stop offset="1" stop-color="#c822ff"/></linearGradient><path fill="url(#b9s7EqZHHAIViuo3IcixXp)" d="M49.833,8.809c-0.821,0.15-1.607,0.295-2.372,0.435c0,0.739,0,1.427,0,2.156 c0.811-0.134,1.589-0.261,2.372-0.39C49.833,10.27,49.833,9.568,49.833,8.809z"/><linearGradient id="b9s7EqZHHAIViuo3IcixXq" x1="51.635" x2="51.635" y1=".872" y2="61.139" gradientUnits="userSpaceOnUse"><stop offset="0" stop-color="#1a6dff"/><stop offset="1" stop-color="#c822ff"/></linearGradient><path fill="url(#b9s7EqZHHAIViuo3IcixXq)" d="M52.804,10.471c0-0.778,0-1.507,0-2.253c-0.792,0.16-1.567,0.318-2.338,0.474 c0,0.747,0,1.462,0,2.211C51.265,10.755,52.041,10.612,52.804,10.471z"/><linearGradient id="b9s7EqZHHAIViuo3IcixXr" x1="45.634" x2="45.634" y1=".872" y2="61.139" gradientUnits="userSpaceOnUse"><stop offset="0" stop-color="#1a6dff"/><stop offset="1" stop-color="#c822ff"/></linearGradient><path fill="url(#b9s7EqZHHAIViuo3IcixXr)" d="M44.448,52.154L44.448,52.154c0,0.72,0,1.408,0,2.113v0.001 c0.792,0.126,1.566,0.251,2.372,0.38c0-0.743,0-1.443,0-2.149C46.019,52.383,45.245,52.27,44.448,52.154z"/><linearGradient id="b9s7EqZHHAIViuo3IcixXs" x1="45.638" x2="45.638" y1=".872" y2="61.139" gradientUnits="userSpaceOnUse"><stop offset="0" stop-color="#1a6dff"/><stop offset="1" stop-color="#c822ff"/></linearGradient><path fill="url(#b9s7EqZHHAIViuo3IcixXs)" d="M44.447,56.919c0.794,0.144,1.573,0.285,2.381,0.43c0-0.73,0-1.431,0-2.151 c-0.797-0.131-1.576-0.26-2.381-0.392C44.447,55.527,44.447,56.215,44.447,56.919z"/><linearGradient id="b9s7EqZHHAIViuo3IcixXt" x1="45.63" x2="45.63" y1=".872" y2="61.139" gradientUnits="userSpaceOnUse"><stop offset="0" stop-color="#1a6dff"/><stop offset="1" stop-color="#c822ff"/></linearGradient><path fill="url(#b9s7EqZHHAIViuo3IcixXt)" d="M44.438,7.22c-0.014,0.646-0.009,1.291-0.009,1.977C45.26,9.06,46.041,8.931,46.831,8.8 c0.001-0.73,0.001-1.432,0.001-2.147c-0.743,0.134-1.471,0.26-2.195,0.4C44.56,7.066,44.44,7.161,44.438,7.22z"/><linearGradient id="b9s7EqZHHAIViuo3IcixXu" x1="33.582" x2="33.582" y1=".872" y2="61.139" gradientUnits="userSpaceOnUse"><stop offset="0" stop-color="#1a6dff"/><stop offset="1" stop-color="#c822ff"/></linearGradient><path fill="url(#b9s7EqZHHAIViuo3IcixXu)" d="M34.108,51.035c-0.069-0.006-0.137-0.021-0.206-0.026c-0.511-0.035-1.022-0.069-1.544-0.105 c0,0.681,0,1.305,0,1.975c0.826,0.068,1.622,0.134,2.406,0.198c0.022-0.063,0.036-0.084,0.036-0.106 c0.003-0.387,0.005-0.774,0.006-1.161C34.808,51.1,34.806,51.1,34.108,51.035z"/><linearGradient id="b9s7EqZHHAIViuo3IcixXv" x1="9.217" x2="9.217" y1=".872" y2="61.139" gradientUnits="userSpaceOnUse"><stop offset="0" stop-color="#1a6dff"/><stop offset="1" stop-color="#c822ff"/></linearGradient><path fill="url(#b9s7EqZHHAIViuo3IcixXv)" d="M10.416,13.787c-0.807-0.044-1.595-0.087-2.397-0.131c0,0.675,0,1.306,0,1.971 c0.808,0.043,1.598,0.083,2.397,0.126C10.416,15.077,10.416,14.442,10.416,13.787z"/><linearGradient id="b9s7EqZHHAIViuo3IcixXw" x1="9.216" x2="9.216" y1=".872" y2="61.139" gradientUnits="userSpaceOnUse"><stop offset="0" stop-color="#1a6dff"/><stop offset="1" stop-color="#c822ff"/></linearGradient><path fill="url(#b9s7EqZHHAIViuo3IcixXw)" d="M10.413,21.139c-0.808,0-1.591,0-2.395,0c0,0.614,0,1.248,0,1.954c0.812,0,1.594,0,2.395,0 C10.413,22.467,10.413,21.825,10.413,21.139z"/><linearGradient id="b9s7EqZHHAIViuo3IcixXx" x1="9.22" x2="9.22" y1=".872" y2="61.139" gradientUnits="userSpaceOnUse"><stop offset="0" stop-color="#1a6dff"/><stop offset="1" stop-color="#c822ff"/></linearGradient><path fill="url(#b9s7EqZHHAIViuo3IcixXx)" d="M8.02,50.351c0.811-0.049,1.598-0.096,2.401-0.144c0-0.659,0-1.282,0-1.962 c-0.822,0.045-1.612,0.09-2.401,0.132C8.02,49.056,8.02,49.69,8.02,50.351z"/><linearGradient id="b9s7EqZHHAIViuo3IcixXy" x1="9.217" x2="9.217" y1=".872" y2="61.139" gradientUnits="userSpaceOnUse"><stop offset="0" stop-color="#1a6dff"/><stop offset="1" stop-color="#c822ff"/></linearGradient><path fill="url(#b9s7EqZHHAIViuo3IcixXy)" d="M10.416,38.453c-0.81,0-1.598,0-2.398,0c0,0.678,0,1.311,0,1.924c0.81,0,1.599,0,2.398,0 C10.416,39.696,10.416,39.064,10.416,38.453z"/><linearGradient id="b9s7EqZHHAIViuo3IcixXz" x1="21.407" x2="21.407" y1=".872" y2="61.139" gradientUnits="userSpaceOnUse"><stop offset="0" stop-color="#1a6dff"/><stop offset="1" stop-color="#c822ff"/></linearGradient><path fill="url(#b9s7EqZHHAIViuo3IcixXz)" d="M22.609,11.608c-0.824,0-1.614,0-2.404,0c0,0.659,0,1.289,0,1.901c0.819,0,1.607,0,2.404,0 C22.609,12.858,22.609,12.244,22.609,11.608z"/><linearGradient id="b9s7EqZHHAIViuo3IcixXA" x1="18.341" x2="18.341" y1=".872" y2="61.139" gradientUnits="userSpaceOnUse"><stop offset="0" stop-color="#1a6dff"/><stop offset="1" stop-color="#c822ff"/></linearGradient><path fill="url(#b9s7EqZHHAIViuo3IcixXA)" d="M19.544,11.603c-0.815,0-1.604,0-2.406,0c0,0.642,0,1.265,0,1.915c0.806,0,1.596,0,2.406,0 C19.544,12.892,19.544,12.269,19.544,11.603z"/><linearGradient id="b9s7EqZHHAIViuo3IcixXB" x1="18.341" x2="18.341" y1=".872" y2="61.139" gradientUnits="userSpaceOnUse"><stop offset="0" stop-color="#1a6dff"/><stop offset="1" stop-color="#c822ff"/></linearGradient><path fill="url(#b9s7EqZHHAIViuo3IcixXB)" d="M17.143,25.659c0.81,0,1.599,0,2.396,0c0-0.648,0-1.276,0-1.904c-0.815,0-1.604,0-2.396,0 C17.143,24.402,17.143,25.024,17.143,25.659z"/><linearGradient id="b9s7EqZHHAIViuo3IcixXC" x1="18.342" x2="18.342" y1=".872" y2="61.139" gradientUnits="userSpaceOnUse"><stop offset="0" stop-color="#1a6dff"/><stop offset="1" stop-color="#c822ff"/></linearGradient><path fill="url(#b9s7EqZHHAIViuo3IcixXC)" d="M19.545,38.338c-0.808,0-1.599,0-2.406,0c0,0.651,0,1.272,0,1.905c0.826,0,1.617,0,2.406,0 C19.545,39.588,19.545,38.965,19.545,38.338z"/><linearGradient id="b9s7EqZHHAIViuo3IcixXD" x1="15.29" x2="15.29" y1=".872" y2="61.139" gradientUnits="userSpaceOnUse"><stop offset="0" stop-color="#1a6dff"/><stop offset="1" stop-color="#c822ff"/></linearGradient><path fill="url(#b9s7EqZHHAIViuo3IcixXD)" d="M14.086,30.517c0.81,0,1.602,0,2.407,0c0-0.637,0-1.262,0-1.918c-0.817,0-1.608,0-2.407,0 C14.086,29.245,14.086,29.868,14.086,30.517z"/><linearGradient id="b9s7EqZHHAIViuo3IcixXE" x1="18.348" x2="18.348" y1=".872" y2="61.139" gradientUnits="userSpaceOnUse"><stop offset="0" stop-color="#1a6dff"/><stop offset="1" stop-color="#c822ff"/></linearGradient><path fill="url(#b9s7EqZHHAIViuo3IcixXE)" d="M17.15,30.518c0.817,0,1.607,0,2.395,0c0-0.647,0-1.27,0-1.903c-0.811,0-1.602,0-2.395,0 C17.15,29.265,17.15,29.894,17.15,30.518z"/><linearGradient id="b9s7EqZHHAIViuo3IcixXF" x1="12.245" x2="12.245" y1=".872" y2="61.139" gradientUnits="userSpaceOnUse"><stop offset="0" stop-color="#1a6dff"/><stop offset="1" stop-color="#c822ff"/></linearGradient><path fill="url(#b9s7EqZHHAIViuo3IcixXF)" d="M13.439,26.133c-0.803,0-1.593,0-2.387,0c0,0.638,0,1.262,0,1.919c0.806,0,1.595,0,2.387,0 C13.439,27.415,13.439,26.79,13.439,26.133z"/><linearGradient id="b9s7EqZHHAIViuo3IcixXG" x1="15.286" x2="15.286" y1=".872" y2="61.139" gradientUnits="userSpaceOnUse"><stop offset="0" stop-color="#1a6dff"/><stop offset="1" stop-color="#c822ff"/></linearGradient><path fill="url(#b9s7EqZHHAIViuo3IcixXG)" d="M16.489,33.489c-0.819,0-1.609,0-2.407,0c0,0.649,0,1.273,0,1.911c0.806,0,1.598,0,2.407,0 C16.489,34.756,16.489,34.133,16.489,33.489z"/><linearGradient id="b9s7EqZHHAIViuo3IcixXH" x1="18.354" x2="18.354" y1=".872" y2="61.139" gradientUnits="userSpaceOnUse"><stop offset="0" stop-color="#1a6dff"/><stop offset="1" stop-color="#c822ff"/></linearGradient><path fill="url(#b9s7EqZHHAIViuo3IcixXH)" d="M17.152,35.384c0.819,0,1.608,0,2.404,0c0-0.639,0-1.253,0-1.901c-0.822,0-1.613,0-2.404,0 C17.152,34.133,17.152,34.763,17.152,35.384z"/><linearGradient id="b9s7EqZHHAIViuo3IcixXI" x1="12.248" x2="12.248" y1=".872" y2="61.139" gradientUnits="userSpaceOnUse"><stop offset="0" stop-color="#1a6dff"/><stop offset="1" stop-color="#c822ff"/></linearGradient><path fill="url(#b9s7EqZHHAIViuo3IcixXI)" d="M11.053,37.861c0.806,0,1.594,0,2.391,0c0-0.653,0-1.277,0-1.906c-0.822,0-1.608,0-2.391,0 C11.053,36.619,11.053,37.24,11.053,37.861z"/><linearGradient id="b9s7EqZHHAIViuo3IcixXJ" x1="12.248" x2="12.248" y1=".872" y2="61.139" gradientUnits="userSpaceOnUse"><stop offset="0" stop-color="#1a6dff"/><stop offset="1" stop-color="#c822ff"/></linearGradient><path fill="url(#b9s7EqZHHAIViuo3IcixXJ)" d="M13.436,32.973c0-0.652,0-1.284,0-1.925c-0.803,0-1.59,0-2.377,0c0,0.654,0,1.285,0,1.925 C11.867,32.973,12.646,32.973,13.436,32.973z"/><linearGradient id="b9s7EqZHHAIViuo3IcixXK" x1="12.244" x2="12.244" y1=".872" y2="61.139" gradientUnits="userSpaceOnUse"><stop offset="0" stop-color="#1a6dff"/><stop offset="1" stop-color="#c822ff"/></linearGradient><path fill="url(#b9s7EqZHHAIViuo3IcixXK)" d="M13.436,38.411c-0.807,0-1.594,0-2.384,0c0,0.666,0,1.289,0,1.898c0.806,0,1.593,0,2.384,0 C13.436,39.641,13.436,39.019,13.436,38.411z"/><linearGradient id="b9s7EqZHHAIViuo3IcixXL" x1="12.243" x2="12.243" y1=".872" y2="61.139" gradientUnits="userSpaceOnUse"><stop offset="0" stop-color="#1a6dff"/><stop offset="1" stop-color="#c822ff"/></linearGradient><path fill="url(#b9s7EqZHHAIViuo3IcixXL)" d="M11.052,52.634c0.807-0.037,1.595-0.073,2.383-0.11c0-0.666,0-1.289,0-1.952 c-0.807,0.035-1.595,0.071-2.383,0.106C11.052,51.351,11.052,51.975,11.052,52.634z"/><linearGradient id="b9s7EqZHHAIViuo3IcixXM" x1="15.295" x2="15.295" y1=".872" y2="61.139" gradientUnits="userSpaceOnUse"><stop offset="0" stop-color="#1a6dff"/><stop offset="1" stop-color="#c822ff"/></linearGradient><path fill="url(#b9s7EqZHHAIViuo3IcixXM)" d="M16.496,45.674c-0.826,0-1.617,0-2.402,0c0,0.672,0,1.303,0,1.894c0.817,0,1.607,0,2.402,0 C16.496,46.901,16.496,46.288,16.496,45.674z"/><linearGradient id="b9s7EqZHHAIViuo3IcixXN" x1="12.239" x2="12.239" y1=".872" y2="61.139" gradientUnits="userSpaceOnUse"><stop offset="0" stop-color="#1a6dff"/><stop offset="1" stop-color="#c822ff"/></linearGradient><path fill="url(#b9s7EqZHHAIViuo3IcixXN)" d="M13.427,13.88c-0.803,0-1.581,0-2.377,0c0,0.604,0,1.227,0,1.93c0.811,0,1.598,0,2.377,0 C13.427,15.193,13.427,14.561,13.427,13.88z"/><linearGradient id="b9s7EqZHHAIViuo3IcixXO" x1="15.287" x2="15.287" y1=".872" y2="61.139" gradientUnits="userSpaceOnUse"><stop offset="0" stop-color="#1a6dff"/><stop offset="1" stop-color="#c822ff"/></linearGradient><path fill="url(#b9s7EqZHHAIViuo3IcixXO)" d="M16.489,40.801c-0.81,0-1.6,0-2.405,0c0,0.656,0,1.277,0,1.899c0.826,0,1.614,0,2.405,0 C16.489,42.034,16.489,41.414,16.489,40.801z"/><linearGradient id="b9s7EqZHHAIViuo3IcixXP" x1="12.246" x2="12.246" y1=".872" y2="61.139" gradientUnits="userSpaceOnUse"><stop offset="0" stop-color="#1a6dff"/><stop offset="1" stop-color="#c822ff"/></linearGradient><path fill="url(#b9s7EqZHHAIViuo3IcixXP)" d="M11.056,45.206c0.808,0,1.595,0,2.381,0c0-0.681,0-1.304,0-1.909c-0.805,0-1.591,0-2.381,0 C11.056,43.981,11.056,44.612,11.056,45.206z"/><linearGradient id="b9s7EqZHHAIViuo3IcixXQ" x1="21.395" x2="21.395" y1=".872" y2="61.139" gradientUnits="userSpaceOnUse"><stop offset="0" stop-color="#1a6dff"/><stop offset="1" stop-color="#c822ff"/></linearGradient><path fill="url(#b9s7EqZHHAIViuo3IcixXQ)" d="M22.596,50.486c-0.812,0-1.603,0-2.402,0c0,0.641,0,1.263,0,1.91c0.833,0,1.621,0,2.402,0 C22.596,51.75,22.596,51.13,22.596,50.486z"/><linearGradient id="b9s7EqZHHAIViuo3IcixXR" x1="18.347" x2="18.347" y1=".872" y2="61.139" gradientUnits="userSpaceOnUse"><stop offset="0" stop-color="#1a6dff"/><stop offset="1" stop-color="#c822ff"/></linearGradient><path fill="url(#b9s7EqZHHAIViuo3IcixXR)" d="M17.146,52.393c0.814,0,1.604,0,2.402,0c0-0.649,0-1.271,0-1.904c-0.805,0-1.594,0-2.402,0 C17.146,51.161,17.146,51.781,17.146,52.393z"/><linearGradient id="b9s7EqZHHAIViuo3IcixXS" x1="15.292" x2="15.292" y1=".872" y2="61.139" gradientUnits="userSpaceOnUse"><stop offset="0" stop-color="#1a6dff"/><stop offset="1" stop-color="#c822ff"/></linearGradient><path fill="url(#b9s7EqZHHAIViuo3IcixXS)" d="M16.494,18.862c-0.805,0-1.595,0-2.404,0c0,0.637,0,1.257,0,1.914c0.812,0,1.602,0,2.404,0 C16.494,20.147,16.494,19.524,16.494,18.862z"/><linearGradient id="b9s7EqZHHAIViuo3IcixXT" x1="12.249" x2="12.249" y1=".872" y2="61.139" gradientUnits="userSpaceOnUse"><stop offset="0" stop-color="#1a6dff"/><stop offset="1" stop-color="#c822ff"/></linearGradient><path fill="url(#b9s7EqZHHAIViuo3IcixXT)" d="M13.434,42.767c0-0.68,0-1.31,0-1.927c-0.801,0-1.579,0-2.37,0c0,0.696,0,1.326,0,1.927 C11.872,42.767,12.65,42.767,13.434,42.767z"/><linearGradient id="b9s7EqZHHAIViuo3IcixXU" x1="15.287" x2="15.287" y1=".872" y2="61.139" gradientUnits="userSpaceOnUse"><stop offset="0" stop-color="#1a6dff"/><stop offset="1" stop-color="#c822ff"/></linearGradient><path fill="url(#b9s7EqZHHAIViuo3IcixXU)" d="M16.489,50.547c-0.81,0-1.599,0-2.405,0c0,0.666,0,1.288,0,1.894c0.824,0,1.613,0,2.405,0 C16.489,51.768,16.489,51.146,16.489,50.547z"/><linearGradient id="b9s7EqZHHAIViuo3IcixXV" x1="15.296" x2="15.296" y1=".872" y2="61.139" gradientUnits="userSpaceOnUse"><stop offset="0" stop-color="#1a6dff"/><stop offset="1" stop-color="#c822ff"/></linearGradient><path fill="url(#b9s7EqZHHAIViuo3IcixXV)" d="M14.094,54.886c0.819,0,1.608,0,2.405,0c0-0.673,0-1.289,0-1.905c-0.821,0-1.612,0-2.405,0 C14.094,53.663,14.094,54.295,14.094,54.886z"/><linearGradient id="b9s7EqZHHAIViuo3IcixXW" x1="15.285" x2="15.285" y1=".872" y2="61.139" gradientUnits="userSpaceOnUse"><stop offset="0" stop-color="#1a6dff"/><stop offset="1" stop-color="#c822ff"/></linearGradient><path fill="url(#b9s7EqZHHAIViuo3IcixXW)" d="M14.084,50.008c0.816,0,1.613,0,2.402,0c0-0.675,0-1.296,0-1.899c-0.812,0-1.602,0-2.402,0 C14.084,48.778,14.084,49.4,14.084,50.008z"/><linearGradient id="b9s7EqZHHAIViuo3IcixXX" x1="18.343" x2="18.343" y1=".872" y2="61.139" gradientUnits="userSpaceOnUse"><stop offset="0" stop-color="#1a6dff"/><stop offset="1" stop-color="#c822ff"/></linearGradient><path fill="url(#b9s7EqZHHAIViuo3IcixXX)" d="M17.141,23.229c0.808,0,1.598,0,2.405,0c0-0.625,0-1.248,0-1.909c-0.819,0-1.608,0-2.405,0 C17.141,21.96,17.141,22.58,17.141,23.229z"/><linearGradient id="b9s7EqZHHAIViuo3IcixXY" x1="15.291" x2="15.291" y1=".872" y2="61.139" gradientUnits="userSpaceOnUse"><stop offset="0" stop-color="#1a6dff"/><stop offset="1" stop-color="#c822ff"/></linearGradient><path fill="url(#b9s7EqZHHAIViuo3IcixXY)" d="M14.097,23.212c0.81,0,1.59,0,2.389,0c0-0.652,0-1.271,0-1.92c-0.812,0-1.603,0-2.389,0 C14.097,21.932,14.097,22.562,14.097,23.212z"/><linearGradient id="b9s7EqZHHAIViuo3IcixXZ" x1="18.346" x2="18.346" y1=".872" y2="61.139" gradientUnits="userSpaceOnUse"><stop offset="0" stop-color="#1a6dff"/><stop offset="1" stop-color="#c822ff"/></linearGradient><path fill="url(#b9s7EqZHHAIViuo3IcixXZ)" d="M17.144,32.946c0.811,0,1.6,0,2.404,0c0-0.638,0-1.258,0-1.9c-0.805,0-1.594,0-2.404,0 C17.144,31.697,17.144,32.318,17.144,32.946z"/><linearGradient id="b9s7EqZHHAIViuo3IcixXaa" x1="15.286" x2="15.286" y1=".872" y2="61.139" gradientUnits="userSpaceOnUse"><stop offset="0" stop-color="#1a6dff"/><stop offset="1" stop-color="#c822ff"/></linearGradient><path fill="url(#b9s7EqZHHAIViuo3IcixXaa)" d="M16.486,26.166c-0.812,0-1.602,0-2.401,0c0,0.646,0,1.267,0,1.91c0.806,0,1.596,0,2.401,0 C16.486,27.437,16.486,26.806,16.486,26.166z"/><linearGradient id="b9s7EqZHHAIViuo3IcixXab" x1="18.343" x2="18.343" y1=".872" y2="61.139" gradientUnits="userSpaceOnUse"><stop offset="0" stop-color="#1a6dff"/><stop offset="1" stop-color="#c822ff"/></linearGradient><path fill="url(#b9s7EqZHHAIViuo3IcixXab)" d="M19.542,40.772c-0.805,0-1.587,0-2.397,0c0,0.658,0,1.28,0,1.899c0.814,0,1.605,0,2.397,0 C19.542,42.023,19.542,41.401,19.542,40.772z"/><linearGradient id="b9s7EqZHHAIViuo3IcixXac" x1="27.51" x2="27.51" y1=".872" y2="61.139" gradientUnits="userSpaceOnUse"><stop offset="0" stop-color="#1a6dff"/><stop offset="1" stop-color="#c822ff"/></linearGradient><path fill="url(#b9s7EqZHHAIViuo3IcixXac)" d="M26.321,18.194c0.803-0.035,1.582-0.071,2.378-0.106c0-0.655,0-1.276,0-1.937 c-0.797,0.037-1.575,0.074-2.378,0.113C26.321,16.924,26.321,17.545,26.321,18.194z"/><linearGradient id="b9s7EqZHHAIViuo3IcixXad" x1="26.588" x2="26.588" y1=".872" y2="61.139" gradientUnits="userSpaceOnUse"><stop offset="0" stop-color="#1a6dff"/><stop offset="1" stop-color="#c822ff"/></linearGradient><path fill="url(#b9s7EqZHHAIViuo3IcixXad)" d="M25.411,25.629c0.805,0,1.582,0,2.355,0c0-0.636,0-1.244,0-1.857c-0.799,0-1.569,0-2.355,0 C25.411,24.417,25.411,25.025,25.411,25.629z"/><linearGradient id="b9s7EqZHHAIViuo3IcixXae" x1="24.468" x2="24.468" y1=".872" y2="61.139" gradientUnits="userSpaceOnUse"><stop offset="0" stop-color="#1a6dff"/><stop offset="1" stop-color="#c822ff"/></linearGradient><path fill="url(#b9s7EqZHHAIViuo3IcixXae)" d="M25.64,16.353c-0.791,0-1.559,0-2.344,0c0,0.674,0,1.295,0,1.881c0.794,0,1.562,0,2.344,0 C25.64,17.563,25.64,16.943,25.64,16.353z"/><linearGradient id="b9s7EqZHHAIViuo3IcixXaf" x1="26.295" x2="26.295" y1=".872" y2="61.139" gradientUnits="userSpaceOnUse"><stop offset="0" stop-color="#1a6dff"/><stop offset="1" stop-color="#c822ff"/></linearGradient><path fill="url(#b9s7EqZHHAIViuo3IcixXaf)" d="M25.12,32.942c0.806,0,1.574,0,2.35,0c0-0.642,0-1.264,0-1.889c-0.794,0-1.572,0-2.35,0 C25.12,31.696,25.12,32.309,25.12,32.942z"/><linearGradient id="b9s7EqZHHAIViuo3IcixXag" x1="51.648" x2="51.648" y1=".872" y2="61.139" gradientUnits="userSpaceOnUse"><stop offset="0" stop-color="#1a6dff"/><stop offset="1" stop-color="#c822ff"/></linearGradient><path fill="url(#b9s7EqZHHAIViuo3IcixXag)" d="M50.496,44.51c0.779,0.09,1.532,0.177,2.305,0.265c0-0.763,0-1.499,0-2.276 c-0.787-0.074-1.548-0.146-2.305-0.218C50.496,43.055,50.496,43.779,50.496,44.51z"/><linearGradient id="b9s7EqZHHAIViuo3IcixXah" x1="36.571" x2="36.571" y1=".872" y2="61.139" gradientUnits="userSpaceOnUse"><stop offset="0" stop-color="#1a6dff"/><stop offset="1" stop-color="#c822ff"/></linearGradient><path fill="url(#b9s7EqZHHAIViuo3IcixXah)" d="M55.91,40.85c-0.15-1.47-0.55-2.87-1.3-4.16c-0.14-0.24-0.49-0.45-0.7-0.54 c-0.14-0.06-1.35-0.1-1.77-0.12c-0.55-0.02-1.57-0.021-2.14-0.051c0-0.81-0.01-1.59,0.01-2.36c0-0.24-0.08-0.36-0.3-0.42 c-0.95-0.28-1.35-0.529-2.31-0.779c-0.55-0.15-0.83-0.269-1.4-0.369v-0.78c0-0.89,0-0.89,0.87-1.19 c1.51-0.52,2.75-1.071,4.03-2.051c1.43-1.11,2.947-2.546,3.557-4.236c0.55-1.52,0.59-3.11,0.48-4.7c-0.09-1.22-0.37-2.4-0.96-3.49 c-0.45-0.86-1.11-1.55-1.95-2.05c-1.513-0.906-3.602-1.23-5.451-1.23c-0.314,0-0.62,0.009-0.916,0.027 c-0.59,0.03-1.19,0.07-1.79,0.11c-0.02-0.2-0.03-0.37-0.04-0.54c-0.79,0.1-1.55,0.19-2.32,0.29v-2.03 c0.78-0.11,1.55-0.22,2.33-0.34V7.22C41.02,7.61,38.21,8,35.39,8.38v5.02c-1.78,0.08-3.52,0.16-5.29,0.24v-2 c0.76-0.05,1.5-0.09,2.23-0.13V8.68c-3.04,0.17-6.06,0.33-9.11,0.5V14h-6.08v2.47h2.37v1.92h-2.36v2.43h3.04v7.81h2.32v1.9H20.2 v2.97h2.32v1.89h-2.35v7.8h-3.02v4.92h2.34V50h3.76v4.84c2.06,0.09,4.07,0.18,6.14,0.27v-1.86c0.81,0.07,1.56,0.13,2.36,0.2v-3.11 c1.23,0.1,2.43,0.19,3.65,0.28v4.99c2.84,0.39,5.63,0.78,8.46,1.16v-5.23c0.51,0.03,0.96,0.06,1.4,0.09 c0.537,0.038,1.095,0.063,1.657,0.063c1.074,0,2.165-0.09,3.163-0.353c2.8-0.74,4.7-2.38,5.47-5.2 C56.02,44.4,56.09,42.63,55.91,40.85z M53.621,45.614c-0.554,2.029-1.804,3.199-4.05,3.793c-0.723,0.19-1.616,0.287-2.654,0.287 c-0.47,0-0.966-0.019-1.521-0.058c-0.446-0.03-3.536-0.216-3.536-0.216v5.062c-1.195-0.163-4.46-0.614-4.46-0.614v-5.105 l-7.65-0.591v3.103l-1.042-0.09c0-0.22,0-0.444,0-0.664c-0.807,0-1.594,0-2.382,0c0,0.631,0,1.231,0,1.86c0.36,0,0.71,0,1.064,0 v0.64l-2.14-0.094V48h-3.76v-0.437c0.37,0,0.743,0,1.114,0c0-0.658,0-1.269,0-1.879c-0.81,0-1.579,0-2.363,0 c0,0.146,0,0.284,0,0.426H19.15v-0.92h3.02v-7.8h2.35l-0.01-10.76h-2.32v-3.418c0.724,0,1.437,0,2.179,0c0-0.631,0-1.24,0-1.874 c-0.741,0-1.459,0-2.179,0V18.82h-0.68V16h3.71v-4.927c0.843-0.046,2.762-0.151,2.88-0.157v4.817l9.29-0.42v-5.185 c0.707-0.097,1.413-0.194,2.12-0.291v4.65c0,0,2.433-0.316,2.52-0.327l0.043,0.425l1.93-0.129c0.589-0.039,1.179-0.079,1.774-0.109 c0.258-0.015,0.525-0.023,0.799-0.023c1.807,0,3.419,0.345,4.428,0.949c0.471,0.28,0.831,0.667,1.111,1.139 c-0.551,0.08-1.091,0.158-1.619,0.234c0,0.761,0,1.482,0,2.226c0.79-0.096,1.551-0.188,2.308-0.28c0-0.116,0-0.227,0-0.342 c0.062,0.313,0.112,0.636,0.138,0.983c0.088,1.274,0.041,2.271-0.15,3.127c0-0.077,0-0.155,0-0.232 c-0.782,0.072-1.537,0.142-2.306,0.213c0,0.736,0,1.45,0,2.221c0.434-0.028,0.851-0.056,1.274-0.083 c-0.503,0.623-1.193,1.28-2.076,1.965c-1.096,0.839-2.139,1.291-3.466,1.748C44.539,28.769,44,29.518,44,31.271v2.46l1.654,0.29 c0.268,0.047,0.43,0.096,0.7,0.178c0.156,0.047,0.322,0.097,0.542,0.157c0.416,0.108,1.081,0.361,1.102,0.369 c0,0.217,0.002,3.152,0.002,3.152s4.813,0.184,5.088,0.199c0.445,0.881,0.719,1.859,0.833,2.976 C54.092,42.743,53.994,44.237,53.621,45.614z"/><linearGradient id="b9s7EqZHHAIViuo3IcixXai" x1="37.201" x2="37.201" y1=".872" y2="61.139" gradientUnits="userSpaceOnUse"><stop offset="0" stop-color="#1a6dff"/><stop offset="1" stop-color="#c822ff"/></linearGradient><path fill="url(#b9s7EqZHHAIViuo3IcixXai)" d="M36.375,30.688l0.029-0.001l0.029-0.002c6.067-0.466,9.084-3.115,8.966-7.863l-0.002-0.142 c-0.023-1.465-0.086-5.355-6.46-5.355c-0.155,0-0.315,0.002-0.479,0.006c-0.553,0.014-7.315,0.325-7.657,0.359L29,17.87V30.9h2 C31.155,30.9,36.331,30.69,36.375,30.688z M31,19.68c0.2-0.02,6.74-0.33,7.51-0.35c0.147-0.004,0.289-0.006,0.427-0.006 c4.555,0,4.433,2.041,4.463,3.536c0.07,2.83-1.13,5.37-7.12,5.83C36.07,28.7,31.07,28.9,31,28.9V19.68z"/><linearGradient id="b9s7EqZHHAIViuo3IcixXaj" x1="37.709" x2="37.709" y1=".872" y2="61.139" gradientUnits="userSpaceOnUse"><stop offset="0" stop-color="#1a6dff"/><stop offset="1" stop-color="#c822ff"/></linearGradient><path fill="url(#b9s7EqZHHAIViuo3IcixXaj)" d="M46.199,39.006c-1.095-3.865-2.799-5.308-10.215-5.703c-0.672-0.028-4.75-0.122-4.985-0.122 h-2L28.965,46.4h2c0.099,0.002,0.592,0.023,1.288,0.051c0.084,0.003,0.169,0.007,0.253,0.01c0,0.422,0,0.843,0,1.277 c0.398,0.017,1.959,0.089,2.352,0.107c0-0.437,0-0.861,0-1.291c1.608,0.062,3.014,0.112,3.716,0.123c0,0.477,0,0.945,0,1.414 c0.2,0.015,1.769,0.136,2.351,0.18c0-0.598,0-1.165,0-1.743c2.859-0.402,4.621-1.681,5.215-3.872 c0.252-0.924,0.493-2.148,0.123-3.426L46.199,39.006z M44.21,42.13c-0.15,0.54-0.56,2.55-5.37,2.55c-1.18,0-7.67-0.28-7.84-0.28 v-9.22c0.15,0,4.19,0.09,4.9,0.12c7.5,0.4,7.68,1.82,8.44,4.48C44.56,40.54,44.42,41.36,44.21,42.13z"/><g><linearGradient id="b9s7EqZHHAIViuo3IcixXak" x1="48.638" x2="48.638" y1="6.234" y2="59.343" gradientUnits="userSpaceOnUse"><stop offset="0" stop-color="#6dc7ff"/><stop offset="1" stop-color="#e6abff"/></linearGradient><path fill="url(#b9s7EqZHHAIViuo3IcixXak)" d="M47.642,3.497c-0.082,0.02-0.198,0.137-0.199,0.212c-0.015,0.74-0.009,1.479-0.009,2.277 c0.798-0.165,1.528-0.313,2.257-0.472c0.059-0.013,0.143-0.1,0.144-0.153C49.845,4.58,49.842,3.799,49.842,3 C49.077,3.17,48.357,3.324,47.642,3.497z"/><linearGradient id="b9s7EqZHHAIViuo3IcixXal" x1="39.657" x2="39.657" y1="6.234" y2="59.343" gradientUnits="userSpaceOnUse"><stop offset="0" stop-color="#6dc7ff"/><stop offset="1" stop-color="#e6abff"/></linearGradient><path fill="url(#b9s7EqZHHAIViuo3IcixXal)" d="M38.463,58.842L38.463,58.842c0.807,0.125,1.589,0.244,2.389,0.367v-0.001 c0-0.788,0-1.54,0-2.335c-0.808-0.115-1.592-0.224-2.389-0.335C38.463,57.326,38.463,58.083,38.463,58.842z"/><linearGradient id="b9s7EqZHHAIViuo3IcixXam" x1="42.648" x2="42.648" y1="6.234" y2="59.343" gradientUnits="userSpaceOnUse"><stop offset="0" stop-color="#6dc7ff"/><stop offset="1" stop-color="#e6abff"/></linearGradient><path fill="url(#b9s7EqZHHAIViuo3IcixXam)" d="M41.564,4.673c-0.05,0.009-0.115,0.112-0.115,0.173c-0.008,0.716-0.005,1.434-0.005,2.191 c0.766-0.122,1.474-0.229,2.176-0.354c0.085-0.015,0.22-0.121,0.221-0.188c0.017-0.728,0.01-1.456,0.01-2.224 C43.059,4.407,42.311,4.535,41.564,4.673z"/><linearGradient id="b9s7EqZHHAIViuo3IcixXan" x1="30.534" x2="30.534" y1="6.234" y2="59.343" gradientUnits="userSpaceOnUse"><stop offset="0" stop-color="#6dc7ff"/><stop offset="1" stop-color="#e6abff"/></linearGradient><path fill="url(#b9s7EqZHHAIViuo3IcixXan)" d="M29.333,8.366c0.81-0.061,1.598-0.119,2.401-0.179c0-0.754,0-1.479,0-2.239 c-0.826,0.069-1.613,0.136-2.401,0.203C29.333,6.902,29.333,7.616,29.333,8.366z"/><linearGradient id="b9s7EqZHHAIViuo3IcixXao" x1="27.478" x2="27.478" y1="6.234" y2="59.343" gradientUnits="userSpaceOnUse"><stop offset="0" stop-color="#6dc7ff"/><stop offset="1" stop-color="#e6abff"/></linearGradient><path fill="url(#b9s7EqZHHAIViuo3IcixXao)" d="M26.269,57.485c0.001,0.071,0.147,0.185,0.235,0.195c0.354,0.04,0.711,0.049,1.069,0.067 c0.374,0.019,0.748,0.037,1.126,0.054c0-0.751,0-1.464,0-2.212c-0.829-0.042-1.617-0.082-2.441-0.124 C26.259,56.17,26.251,56.828,26.269,57.485z"/><linearGradient id="b9s7EqZHHAIViuo3IcixXap" x1="18.337" x2="18.337" y1="6.234" y2="59.343" gradientUnits="userSpaceOnUse"><stop offset="0" stop-color="#6dc7ff"/><stop offset="1" stop-color="#e6abff"/></linearGradient><path fill="url(#b9s7EqZHHAIViuo3IcixXap)" d="M17.137,8.65c0.807,0,1.599,0,2.401,0c0-0.717,0-1.427,0-2.166c-0.815,0-1.605,0-2.401,0 C17.137,7.213,17.137,7.918,17.137,8.65z"/><linearGradient id="b9s7EqZHHAIViuo3IcixXaq" x1="45.633" x2="45.633" y1="6.234" y2="59.343" gradientUnits="userSpaceOnUse"><stop offset="0" stop-color="#6dc7ff"/><stop offset="1" stop-color="#e6abff"/></linearGradient><path fill="url(#b9s7EqZHHAIViuo3IcixXaq)" d="M44.442,9.732c0,0.707,0,1.387,0,2.114c0.821-0.12,1.603-0.235,2.381-0.348v-0.001 c0-0.726,0-1.424,0-2.147V9.348c-0.81,0.13-1.59,0.256-2.381,0.383V9.732z"/><linearGradient id="b9s7EqZHHAIViuo3IcixXar" x1="9.219" x2="9.219" y1="6.234" y2="59.343" gradientUnits="userSpaceOnUse"><stop offset="0" stop-color="#6dc7ff"/><stop offset="1" stop-color="#e6abff"/></linearGradient><path fill="url(#b9s7EqZHHAIViuo3IcixXar)" d="M8.018,52.832c0.816-0.055,1.603-0.11,2.401-0.164v-0.001c0-0.666,0-1.296,0-1.959v-0.001 c-0.808,0.05-1.596,0.1-2.401,0.149C8.018,51.518,8.018,52.152,8.018,52.832z"/><linearGradient id="b9s7EqZHHAIViuo3IcixXas" x1="9.204" x2="9.204" y1="6.234" y2="59.343" gradientUnits="userSpaceOnUse"><stop offset="0" stop-color="#6dc7ff"/><stop offset="1" stop-color="#e6abff"/></linearGradient><path fill="url(#b9s7EqZHHAIViuo3IcixXas)" d="M8.187,20.592c0.734,0.01,1.467,0.006,2.222,0.006c0-0.593,0-1.232,0-1.925 c-0.807,0-1.587,0-2.409,0c0,0.57-0.005,1.17,0.008,1.77C8.01,20.496,8.125,20.59,8.187,20.592z"/><linearGradient id="b9s7EqZHHAIViuo3IcixXat" x1="9.223" x2="9.223" y1="6.234" y2="59.343" gradientUnits="userSpaceOnUse"><stop offset="0" stop-color="#6dc7ff"/><stop offset="1" stop-color="#e6abff"/></linearGradient><path fill="url(#b9s7EqZHHAIViuo3IcixXat)" d="M8.024,28.028c0.814,0,1.603,0,2.397,0c0-0.653,0-1.276,0-1.953c-0.821,0-1.6,0-2.397,0 C8.024,26.719,8.024,27.36,8.024,28.028z"/><linearGradient id="b9s7EqZHHAIViuo3IcixXau" x1="9.226" x2="9.226" y1="6.234" y2="59.343" gradientUnits="userSpaceOnUse"><stop offset="0" stop-color="#6dc7ff"/><stop offset="1" stop-color="#e6abff"/></linearGradient><path fill="url(#b9s7EqZHHAIViuo3IcixXau)" d="M8.027,37.901c0.815,0,1.603,0,2.398,0c0-0.667,0-1.28,0-1.913c-0.822,0-1.612,0-2.398,0 C8.027,36.659,8.027,37.301,8.027,37.901z"/><linearGradient id="b9s7EqZHHAIViuo3IcixXav" x1="12.243" x2="12.243" y1="6.234" y2="59.343" gradientUnits="userSpaceOnUse"><stop offset="0" stop-color="#6dc7ff"/><stop offset="1" stop-color="#e6abff"/></linearGradient><path fill="url(#b9s7EqZHHAIViuo3IcixXav)" d="M11.051,47.671c0.799,0,1.579,0,2.384,0c0-0.699,0-1.32,0-1.91c-0.806,0-1.593,0-2.384,0 C11.051,46.442,11.051,47.064,11.051,47.671z"/><linearGradient id="b9s7EqZHHAIViuo3IcixXaw" x1="12.239" x2="12.239" y1="6.234" y2="59.343" gradientUnits="userSpaceOnUse"><stop offset="0" stop-color="#6dc7ff"/><stop offset="1" stop-color="#e6abff"/></linearGradient><path fill="url(#b9s7EqZHHAIViuo3IcixXaw)" d="M13.431,16.334c-0.808,0-1.594,0-2.384,0c0,0.625,0,1.237,0,1.918c0.812,0,1.591,0,2.384,0 C13.431,17.637,13.431,17.01,13.431,16.334z"/><linearGradient id="b9s7EqZHHAIViuo3IcixXax" x1="12.243" x2="12.243" y1="6.234" y2="59.343" gradientUnits="userSpaceOnUse"><stop offset="0" stop-color="#6dc7ff"/><stop offset="1" stop-color="#e6abff"/></linearGradient><path fill="url(#b9s7EqZHHAIViuo3IcixXax)" d="M13.426,25.609c0-0.648,0-1.277,0-1.937c-0.807,0-1.586,0-2.365,0c0,0.652,0,1.284,0,1.937 C11.859,25.609,12.631,25.609,13.426,25.609z"/><linearGradient id="b9s7EqZHHAIViuo3IcixXay" x1="15.291" x2="15.291" y1="6.234" y2="59.343" gradientUnits="userSpaceOnUse"><stop offset="0" stop-color="#6dc7ff"/><stop offset="1" stop-color="#e6abff"/></linearGradient><path fill="url(#b9s7EqZHHAIViuo3IcixXay)" d="M14.083,37.82c0.814,0,1.61,0,2.416,0c0-0.651,0-1.263,0-1.893c-0.824,0-1.614,0-2.416,0 C14.083,36.577,14.083,37.199,14.083,37.82z"/><linearGradient id="b9s7EqZHHAIViuo3IcixXaz" x1="15.293" x2="15.293" y1="6.234" y2="59.343" gradientUnits="userSpaceOnUse"><stop offset="0" stop-color="#6dc7ff"/><stop offset="1" stop-color="#e6abff"/></linearGradient><path fill="url(#b9s7EqZHHAIViuo3IcixXaz)" d="M16.495,13.987c-0.799,0-1.59,0-2.404,0c0,0.619,0,1.25,0,1.918c0.812,0,1.6,0,2.404,0 C16.495,15.281,16.495,14.659,16.495,13.987z"/><linearGradient id="b9s7EqZHHAIViuo3IcixXaA" x1="21.398" x2="21.398" y1="6.234" y2="59.343" gradientUnits="userSpaceOnUse"><stop offset="0" stop-color="#6dc7ff"/><stop offset="1" stop-color="#e6abff"/></linearGradient><path fill="url(#b9s7EqZHHAIViuo3IcixXaA)" d="M20.201,54.824c0.814,0,1.603,0,2.395,0c0-0.646,0-1.267,0-1.905c-0.805,0-1.586,0-2.395,0 C20.201,53.561,20.201,54.181,20.201,54.824z"/><linearGradient id="b9s7EqZHHAIViuo3IcixXaB" x1="21.392" x2="21.392" y1="6.234" y2="59.343" gradientUnits="userSpaceOnUse"><stop offset="0" stop-color="#6dc7ff"/><stop offset="1" stop-color="#e6abff"/></linearGradient><path fill="url(#b9s7EqZHHAIViuo3IcixXaB)" d="M22.592,9.19c-0.819,0-1.61,0-2.4,0c0,0.644,0,1.257,0,1.879c0.831,0,1.623,0,2.4,0 C22.592,10.414,22.592,9.792,22.592,9.19z"/><linearGradient id="b9s7EqZHHAIViuo3IcixXaC" x1="23.855" x2="23.855" y1="6.234" y2="59.343" gradientUnits="userSpaceOnUse"><stop offset="0" stop-color="#6dc7ff"/><stop offset="1" stop-color="#e6abff"/></linearGradient><path fill="url(#b9s7EqZHHAIViuo3IcixXaC)" d="M22.668,42.662c0.799,0,1.578,0,2.374,0c0-0.634,0-1.245,0-1.862c-0.813,0-1.59,0-2.374,0 C22.668,41.441,22.668,42.052,22.668,42.662z"/><linearGradient id="b9s7EqZHHAIViuo3IcixXaD" x1="23.858" x2="23.858" y1="6.234" y2="59.343" gradientUnits="userSpaceOnUse"><stop offset="0" stop-color="#6dc7ff"/><stop offset="1" stop-color="#e6abff"/></linearGradient><path fill="url(#b9s7EqZHHAIViuo3IcixXaD)" d="M22.672,40.223c0.802,0,1.58,0,2.372,0c0-0.635,0-1.237,0-1.86c-0.808,0-1.585,0-2.372,0 C22.672,39.008,22.672,39.617,22.672,40.223z"/></g></svg>