<?xml version="1.0" encoding="utf-8"?>
<svg id="master-artboard" viewBox="0 0 1400 980" version="1.1" xmlns="http://www.w3.org/2000/svg" x="0px" y="0px" width="1400px" height="980px" enable-background="new 0 0 1400 980">
<path d="M 0 0 H 1400 V 980 H 0 V 0 Z" fill-rule="evenodd" clip-rule="evenodd" fill="#FFFFFF" transform="matrix(0.2938229441642761, 0, 0, 0.2938229441642761, 974.1900129248579, 137.47824210841975)" style="fill-opacity: 0;"/>
<linearGradient id="SVGID_1_" gradientUnits="userSpaceOnUse" x1="1202" y1="305.45" x2="1249" y2="305.45">
		<stop offset="0" style="stop-color:#003189"/>
		<stop offset="1" style="stop-color:#0563BE"/>
	</linearGradient><path d="M 1249 225 L 1202 279.79998779296875 L 1202 385.8999938964844 L 1249 331.1000061035156 Z" fill-rule="evenodd" clip-rule="evenodd" fill="url(#SVGID_1_)" transform="matrix(1, 0, 0, 1, 2.842170943040401e-14, 0)" style="fill: rgb(255, 5, 76); stroke: rgb(242, 242, 242); stroke-opacity: 1; stroke-width: 3;"/><linearGradient id="SVGID_2_" gradientUnits="userSpaceOnUse" x1="1113.9519" y1="214.6971" x2="1201.9309" y2="214.6971">
		<stop offset="0" style="stop-color:#0083DF"/>
		<stop offset="1" style="stop-color:#17A3D4"/>
	</linearGradient><path d="M 1201.9000244140625 280 L 1114 280 L 1157.9000244140625 149.39999389648438 Z" fill-rule="evenodd" clip-rule="evenodd" fill="url(#SVGID_2_)" transform="matrix(1, 0, 0, 1, 2.842170943040401e-14, 0)" style="fill: rgb(255, 0, 34); stroke: rgb(242, 242, 242); stroke-opacity: 1; stroke-width: 3;"/><linearGradient id="SVGID_3_" gradientUnits="userSpaceOnUse" x1="1113.9519" y1="394.5193" x2="1201.9309" y2="394.5193">
		<stop offset="0" style="stop-color:#003189"/>
		<stop offset="1" style="stop-color:#0563BE"/>
	</linearGradient><path d="M 1201.9000244140625 386 L 1114 386 L 1157.9000244140625 403 Z" fill-rule="evenodd" clip-rule="evenodd" fill="url(#SVGID_3_)" transform="matrix(1, 0, 0, 1, 2.842170943040401e-14, 0)" style="fill: rgb(255, 0, 81);"/><linearGradient id="SVGID_4_" gradientUnits="userSpaceOnUse" x1="1067" y1="305.45" x2="1114" y2="305.45">
		<stop offset="0" style="stop-color:#0083DF"/>
		<stop offset="1" style="stop-color:#17A3D4"/>
	</linearGradient><path d="M 1067 225 L 1114 279.79998779296875 L 1114 385.8999938964844 L 1067 331.1000061035156 Z" fill-rule="evenodd" clip-rule="evenodd" fill="url(#SVGID_4_)" transform="matrix(1, 0, 0, 1, 2.842170943040401e-14, 0)" style="stroke: rgb(242, 242, 242); stroke-width: 3; fill: rgb(255, 0, 64);"/><linearGradient id="SVGID_5_" gradientUnits="userSpaceOnUse" x1="1114" y1="333" x2="1202" y2="333">
		<stop offset="0" style="stop-color:#004D97"/>
		<stop offset="1" style="stop-color:#057CD3"/>
	</linearGradient><path d="M 1114 280 H 1202 V 386 H 1114 V 280 Z" fill-rule="evenodd" clip-rule="evenodd" fill="url(#SVGID_5_)" transform="matrix(1, 0, 0, 1, 2.842170943040401e-14, 0)" style="fill: rgb(255, 3, 66); stroke: rgb(242, 242, 242); stroke-opacity: 1; stroke-width: 3;"/><linearGradient id="SVGID_6_" gradientUnits="userSpaceOnUse" x1="1157.9414" y1="214.4493" x2="1249.14" y2="214.4493">
		<stop offset="0" style="stop-color:#004D97"/>
		<stop offset="1" style="stop-color:#057CD3"/>
	</linearGradient><path d="M 1249.0999755859375 225 L 1201.9000244140625 279.79998779296875 L 1157.9000244140625 149.10000610351562 Z" fill-rule="evenodd" clip-rule="evenodd" fill="url(#SVGID_6_)" transform="matrix(1, 0, 0, 1, 2.842170943040401e-14, 0)" style="fill: rgb(255, 5, 63); stroke: rgb(242, 242, 242); stroke-width: 3; stroke-opacity: 1;"/><linearGradient id="SVGID_7_" gradientUnits="userSpaceOnUse" x1="1112.3422" y1="279.7522" x2="1112.3422" y2="149.1464">
		<stop offset="0" style="stop-color:#00CCFF"/>
		<stop offset="1" style="stop-color:#8FE9DF"/>
	</linearGradient><path d="M 1066.699951171875 225 L 1114 279.79998779296875 L 1157.9000244140625 149.10000610351562 Z" fill-rule="evenodd" clip-rule="evenodd" fill="url(#SVGID_7_)" transform="matrix(1, 0, 0, 1, 2.842170943040401e-14, 0)" style="fill: rgb(255, 10, 47); stroke-opacity: 1; stroke: rgb(242, 242, 242); stroke-width: 3;"/>
<linearGradient id="SVGID_8_" gradientUnits="userSpaceOnUse" x1="763.8233" y1="360.5106" x2="870" y2="360.5106">
		<stop offset="0" style="stop-color:#0083DF"/>
		<stop offset="1" style="stop-color:#17A3D4"/>
	</linearGradient><path d="M 763.7999877929688 283.5 L 870 338.20001220703125 L 870 437.5 Z" fill-rule="evenodd" clip-rule="evenodd" fill="url(#SVGID_8_)" transform="matrix(1, 0, 0, 1, 2.842170943040401e-14, 0)"/><linearGradient id="SVGID_9_" gradientUnits="userSpaceOnUse" x1="870" y1="360.5106" x2="976.1767" y2="360.5106">
		<stop offset="0" style="stop-color:#004D97"/>
		<stop offset="1" style="stop-color:#057CD3"/>
	</linearGradient><path d="M 976.2000122070312 283.5 L 870 338.20001220703125 L 870 437.5 Z" fill-rule="evenodd" clip-rule="evenodd" fill="url(#SVGID_9_)" transform="matrix(1, 0, 0, 1, 2.842170943040401e-14, 0)"/><linearGradient id="SVGID_10_" gradientUnits="userSpaceOnUse" x1="870" y1="226.3537" x2="976.1767" y2="226.3537">
		<stop offset="0" style="stop-color:#0083DF"/>
		<stop offset="1" style="stop-color:#17A3D4"/>
	</linearGradient><path d="M 976.2000122070312 283.5 L 870 338.20001220703125 L 870 114.5 Z" fill-rule="evenodd" clip-rule="evenodd" fill="url(#SVGID_10_)" transform="matrix(1, 0, 0, 1, 2.842170943040401e-14, 0)"/><linearGradient id="SVGID_11_" gradientUnits="userSpaceOnUse" x1="816.9116" y1="338.2415" x2="816.9116" y2="114.4659">
		<stop offset="0" style="stop-color:#00CCFF"/>
		<stop offset="1" style="stop-color:#8FE9DF"/>
	</linearGradient><path d="M 763.7999877929688 283.5 L 870 338.20001220703125 L 870 114.5 Z" fill-rule="evenodd" clip-rule="evenodd" fill="url(#SVGID_11_)" transform="matrix(1.0000009697846861, -0.0003597233851075632, 0.0003597233851075632, 1.0000009697846861, -0.0813450941678866, 0.29386810965191046)"/>
<linearGradient id="SVGID_12_" gradientUnits="userSpaceOnUse" x1="437.0061" y1="276.3476" x2="566" y2="276.3476">
		<stop offset="0" style="stop-color:#0083DF"/>
		<stop offset="1" style="stop-color:#17A3D4"/>
	</linearGradient><path d="M 437 174.5 L 566 240.10000610351562 L 566 378.20001220703125 Z" fill-rule="evenodd" clip-rule="evenodd" fill="url(#SVGID_12_)" transform="matrix(1, 0, 0, 1, 2.842170943040401e-14, 0)"/><linearGradient id="SVGID_13_" gradientUnits="userSpaceOnUse" x1="566" y1="276.3476" x2="694.9938" y2="276.3476">
		<stop offset="0" style="stop-color:#004D97"/>
		<stop offset="1" style="stop-color:#057CD3"/>
	</linearGradient><path d="M 695 174.5 L 566 240.10000610351562 L 566 378.20001220703125 Z" fill-rule="evenodd" clip-rule="evenodd" fill="url(#SVGID_13_)" transform="matrix(1, 0, 0, 1, 2.842170943040401e-14, 0)"/><linearGradient id="SVGID_14_" gradientUnits="userSpaceOnUse" x1="565.5292" y1="239.6353" x2="565.5292" y2="174">
		<stop offset="0" style="stop-color:#00CCFF"/>
		<stop offset="1" style="stop-color:#8FE9DF"/>
	</linearGradient><path d="M 694.5 174 L 565.5 239.60000610351562 L 436.5 174 Z" fill-rule="evenodd" clip-rule="evenodd" fill="url(#SVGID_14_)" transform="matrix(1, 0, 0, 1, 2.842170943040401e-14, 0)"/>
<linearGradient id="SVGID_15_" gradientUnits="userSpaceOnUse" x1="143" y1="303.3772" x2="249" y2="303.3772">
		<stop offset="0" style="stop-color:#0083DF"/>
		<stop offset="1" style="stop-color:#17A3D4"/>
	</linearGradient><path d="M 143 222.89999389648438 L 249 277.70001220703125 L 249 383.79998779296875 L 143 329.1000061035156 Z" fill-rule="evenodd" clip-rule="evenodd" fill="url(#SVGID_15_)" transform="matrix(1, 0, 0, 1, -2.27424735744313, -1.1371236787215935)" style="fill-opacity: 0;"/><linearGradient id="SVGID_16_" gradientUnits="userSpaceOnUse" x1="249" y1="303.3772" x2="355" y2="303.3772">
		<stop offset="0" style="stop-color:#004D97"/>
		<stop offset="1" style="stop-color:#057CD3"/>
	</linearGradient><path d="M 355 222.89999389648438 L 249 277.70001220703125 L 249 383.79998779296875 L 355 329.1000061035156 Z" fill-rule="evenodd" clip-rule="evenodd" fill="url(#SVGID_16_)" transform="matrix(1, 0, 0, 1, 98.9297600487784, 141.0033361614772)" style="fill-opacity: 0;"/><linearGradient id="SVGID_17_" gradientUnits="userSpaceOnUse" x1="249" y1="277.6794" x2="249" y2="168.1707">
		<stop offset="0" style="stop-color:#00CCFF"/>
		<stop offset="1" style="stop-color:#8FE9DF"/>
	</linearGradient><path d="M 142.8000030517578 222.89999389648438 L 249 277.70001220703125 L 355.20001220703125 222.89999389648438 L 249 168.1999969482422 Z" fill-rule="evenodd" clip-rule="evenodd" fill="url(#SVGID_17_)" transform="matrix(1, 0, 0, 1, -1.1371236787215366, 0)" style="fill-opacity: 0;"/>
<linearGradient id="SVGID_18_" gradientUnits="userSpaceOnUse" x1="1135.2704" y1="714.792" x2="1135.2704" y2="545.1409">
		<stop offset="0" style="stop-color:#00CCFF"/>
		<stop offset="1" style="stop-color:#8FE9DF"/>
	</linearGradient><path d="M 1147.5 573.9000244140625 L 1217.199951171875 545.0999755859375 L 1123 686 L 1053.4000244140625 714.7999877929688 Z" fill-rule="evenodd" clip-rule="evenodd" fill="url(#SVGID_18_)" transform="matrix(1, 0, 0, 1, 2.842170943040401e-14, 0)"/><linearGradient id="SVGID_19_" gradientUnits="userSpaceOnUse" x1="1053.3806" y1="737.4459" x2="1262.6194" y2="737.4459">
		<stop offset="0" style="stop-color:#004D97"/>
		<stop offset="1" style="stop-color:#057CD3"/>
	</linearGradient><path d="M 1192.9000244140625 788.9000244140625 L 1262.5999755859375 760.0999755859375 L 1123 686 L 1053.4000244140625 714.7999877929688 Z" fill-rule="evenodd" clip-rule="evenodd" fill="url(#SVGID_19_)" transform="matrix(1, 0, 0, 1, 2.842170943040401e-14, 0)"/><linearGradient id="SVGID_20_" gradientUnits="userSpaceOnUse" x1="1123.0219" y1="652.6379" x2="1262.6194" y2="652.6379">
		<stop offset="0" style="stop-color:#0083DF"/>
		<stop offset="1" style="stop-color:#17A3D4"/>
	</linearGradient><path d="M 1262.5999755859375 760.0999755859375 L 1123 686 L 1217.199951171875 545.0999755859375 Z" fill-rule="evenodd" clip-rule="evenodd" fill="url(#SVGID_20_)" transform="matrix(1, 0, 0, 1, 2.842170943040401e-14, 0)"/>
<linearGradient id="SVGID_21_" gradientUnits="userSpaceOnUse" x1="828.0753" y1="760.6362" x2="828.0753" y2="520.4868">
		<stop offset="0" style="stop-color:#00CCFF"/>
		<stop offset="1" style="stop-color:#8FE9DF"/>
	</linearGradient><path d="M 870 520.5 L 829.5999755859375 760.5999755859375 L 786.2000122070312 728.9000244140625 Z" fill-rule="evenodd" clip-rule="evenodd" fill="url(#SVGID_21_)" transform="matrix(1, 0, 0, 1, 2.842170943040401e-14, 0)"/><linearGradient id="SVGID_22_" gradientUnits="userSpaceOnUse" x1="870" y1="640.5615" x2="953.8495" y2="640.5615">
		<stop offset="0" style="stop-color:#004D97"/>
		<stop offset="1" style="stop-color:#057CD3"/>
	</linearGradient><path d="M 953.7999877929688 728.9000244140625 L 910.5 760.5999755859375 L 870 520.5 Z" fill-rule="evenodd" clip-rule="evenodd" fill="url(#SVGID_22_)" transform="matrix(1, 0, 0, 1, 2.842170943040401e-14, 0)"/><linearGradient id="SVGID_23_" gradientUnits="userSpaceOnUse" x1="829.5801" y1="639.9253" x2="910.455" y2="639.9253">
		<stop offset="0" style="stop-color:#0083DF"/>
		<stop offset="1" style="stop-color:#17A3D4"/>
	</linearGradient><path d="M 910.5 760 L 829.5999755859375 760 L 870 519.9000244140625 Z" fill-rule="evenodd" clip-rule="evenodd" fill="url(#SVGID_23_)" transform="matrix(1, 0, 0, 1, 2.842170943040401e-14, 0)"/><linearGradient id="SVGID_24_" gradientUnits="userSpaceOnUse" x1="829.5801" y1="786.6249" x2="910.455" y2="786.6249">
		<stop offset="0" style="stop-color:#004D97"/>
		<stop offset="1" style="stop-color:#057CD3"/>
	</linearGradient><path d="M 910.5 760 L 829.5999755859375 760 L 870 813.2000122070312 Z" fill-rule="evenodd" clip-rule="evenodd" fill="url(#SVGID_24_)" transform="matrix(1, 0, 0, 1, 2.842170943040401e-14, 0)"/><linearGradient id="SVGID_25_" gradientUnits="userSpaceOnUse" x1="870" y1="771.3947" x2="953.8495" y2="771.3947">
		<stop offset="0" style="stop-color:#003189"/>
		<stop offset="1" style="stop-color:#0563BE"/>
	</linearGradient><path d="M 953.7999877929688 728.9000244140625 L 910.5 760.5999755859375 L 870 813.9000244140625 Z" fill-rule="evenodd" clip-rule="evenodd" fill="url(#SVGID_25_)" transform="matrix(1, 0, 0, 1, 2.842170943040401e-14, 0)"/><linearGradient id="SVGID_26_" gradientUnits="userSpaceOnUse" x1="786.1505" y1="771.3947" x2="870" y2="771.3947">
		<stop offset="0" style="stop-color:#0083DF"/>
		<stop offset="1" style="stop-color:#17A3D4"/>
	</linearGradient><path d="M 870 813.9000244140625 L 829.5999755859375 760.5999755859375 L 786.2000122070312 728.9000244140625 Z" fill-rule="evenodd" clip-rule="evenodd" fill="url(#SVGID_26_)" transform="matrix(1, 0, 0, 1, 2.842170943040401e-14, 0)"/>
<linearGradient id="SVGID_27_" gradientUnits="userSpaceOnUse" x1="459.8233" y1="782.4739" x2="566" y2="782.4739">
		<stop offset="0" style="stop-color:#0083DF"/>
		<stop offset="1" style="stop-color:#17A3D4"/>
	</linearGradient><path d="M 459.79998779296875 705.5999755859375 L 566 760.2999877929688 L 566 859.4000244140625 Z" fill-rule="evenodd" clip-rule="evenodd" fill="url(#SVGID_27_)" transform="matrix(1, 0, 0, 1, 2.842170943040401e-14, 0)"/><linearGradient id="SVGID_28_" gradientUnits="userSpaceOnUse" x1="566" y1="782.4739" x2="672.1767" y2="782.4739">
		<stop offset="0" style="stop-color:#004D97"/>
		<stop offset="1" style="stop-color:#057CD3"/>
	</linearGradient><path d="M 672.2000122070312 705.5999755859375 L 566 760.2999877929688 L 566 859.4000244140625 Z" fill-rule="evenodd" clip-rule="evenodd" fill="url(#SVGID_28_)" transform="matrix(1, 0, 0, 1, 2.842170943040401e-14, 0)"/><linearGradient id="SVGID_29_" gradientUnits="userSpaceOnUse" x1="566.3847" y1="760.2923" x2="566.3847" y2="650.8186">
		<stop offset="0" style="stop-color:#00CCFF"/>
		<stop offset="1" style="stop-color:#8FE9DF"/>
	</linearGradient><path d="M 672.5999755859375 705.5999755859375 L 566.4000244140625 760.2999877929688 L 460.20001220703125 705.5999755859375 L 566.4000244140625 650.7999877929688 Z" fill-rule="evenodd" clip-rule="evenodd" fill="url(#SVGID_29_)" transform="matrix(1, 0, 0, 1, 2.842170943040401e-14, 0)"/><linearGradient id="SVGID_30_" gradientUnits="userSpaceOnUse" x1="608.4844" y1="676.6389" x2="524.2499" y2="676.6389">
		<stop offset="0" style="stop-color:#004399"/>
		<stop offset="1" style="stop-color:#17A3D4"/>
	</linearGradient><path fill-rule="evenodd" clip-rule="evenodd" fill="url(#SVGID_30_)" d="M566.4,634.5c23.2,0,42.1,18.9,42.1,42.1&#10;&#9;&#9;s-18.9,42.1-42.1,42.1c-23.3,0-42.1-18.9-42.1-42.1S543.1,634.5,566.4,634.5L566.4,634.5z" transform="matrix(1, 0, 0, 1, 2.842170943040401e-14, 0)"/><linearGradient id="SVGID_31_" gradientUnits="userSpaceOnUse" x1="511.9117" y1="683.1814" x2="511.9117" y2="474.625">
		<stop offset="0" style="stop-color:#00CCFF"/>
		<stop offset="1" style="stop-color:#8FE9DF"/>
	</linearGradient><path d="M 458.79998779296875 628.4000244140625 L 565 683.2000122070312 L 565 474.6000061035156 Z" fill-rule="evenodd" clip-rule="evenodd" fill="url(#SVGID_31_)" transform="matrix(1, 0, 0, 1, 2.842170943040401e-14, 0)"/><linearGradient id="SVGID_32_" gradientUnits="userSpaceOnUse" x1="565" y1="578.9032" x2="671.1767" y2="578.9032">
		<stop offset="0" style="stop-color:#0083DF"/>
		<stop offset="1" style="stop-color:#17A3D4"/>
	</linearGradient><path d="M 671.2000122070312 628.4000244140625 L 565 683.2000122070312 L 565 474.6000061035156 Z" fill-rule="evenodd" clip-rule="evenodd" fill="url(#SVGID_32_)" transform="matrix(1, 0, 0, 1, 2.842170943040401e-14, 0)"/>
<linearGradient id="SVGID_33_" gradientUnits="userSpaceOnUse" x1="136.4366" y1="703.0636" x2="225.3605" y2="703.0636">
		<stop offset="0" style="stop-color:#0083DF"/>
		<stop offset="1" style="stop-color:#17A3D4"/>
	</linearGradient><path d="M 156.8000030517578 641.0999755859375 L 211.8000030517578 688.2999877929688 L 225.39999389648438 765 L 178.8000030517578 765 L 136.39999389648438 688.2999877929688 Z" fill-rule="evenodd" clip-rule="evenodd" fill="url(#SVGID_33_)" transform="matrix(1, 0, 0, 1, 2.842170943040401e-14, 0)"/><linearGradient id="SVGID_34_" gradientUnits="userSpaceOnUse" x1="211.7822" y1="705.3727" x2="341.196" y2="705.3727">
		<stop offset="0" style="stop-color:#004D97"/>
		<stop offset="1" style="stop-color:#057CD3"/>
	</linearGradient><path d="M 286.20001220703125 645.7000122070312 L 211.8000030517578 688.2999877929688 L 225.39999389648438 765 L 319.6000061035156 765 L 341.20001220703125 693 Z" fill-rule="evenodd" clip-rule="evenodd" fill="url(#SVGID_34_)" transform="matrix(1, 0, 0, 1, 2.842170943040401e-14, 0)"/><linearGradient id="SVGID_35_" gradientUnits="userSpaceOnUse" x1="272.6396" y1="631.1987" x2="361.5634" y2="631.1987">
		<stop offset="0" style="stop-color:#0083DF"/>
		<stop offset="1" style="stop-color:#17A3D4"/>
	</linearGradient><path d="M 341.20001220703125 693.4000244140625 L 286.20001220703125 645.9000244140625 L 272.6000061035156 569 L 319.20001220703125 569 L 361.6000061035156 645.9000244140625 Z" fill-rule="evenodd" clip-rule="evenodd" fill="url(#SVGID_35_)" transform="matrix(1, 0, 0, 1, 2.842170943040401e-14, 0)"/><path d="M 211.8000030517578 688.7999877929688 L 286.20001220703125 645.9000244140625 L 272.6000061035156 569 L 178.39999389648438 569 L 156.8000030517578 641.2999877929688 Z" fill-rule="evenodd" clip-rule="evenodd" fill="#00ABD6" transform="matrix(1, 0, 0, 1, 2.842170943040401e-14, 0)"/><linearGradient id="SVGID_36_" gradientUnits="userSpaceOnUse" x1="157.434" y1="689.0533" x2="157.434" y2="569">
		<stop offset="0" style="stop-color:#00CCFF"/>
		<stop offset="1" style="stop-color:#8FE9DF"/>
	</linearGradient><path d="M 156.8000030517578 641.2999877929688 L 178.39999389648438 569 L 173.60000610351562 569 L 136.39999389648438 689.0999755859375 Z" fill-rule="evenodd" clip-rule="evenodd" fill="url(#SVGID_36_)" transform="matrix(1, 0, 0, 1, 2.842170943040401e-14, 0)"/><linearGradient id="SVGID_37_" gradientUnits="userSpaceOnUse" x1="319.5687" y1="705.0389" x2="361.5634" y2="705.0389">
		<stop offset="0" style="stop-color:#003189"/>
		<stop offset="1" style="stop-color:#0563BE"/>
	</linearGradient><path d="M 341.20001220703125 693 L 319.6000061035156 765 L 324.3999938964844 765 L 361.6000061035156 645.0999755859375 Z" fill-rule="evenodd" clip-rule="evenodd" fill="url(#SVGID_37_)" transform="matrix(1, 0, 0, 1, 2.842170943040401e-14, 0)"/>
</svg>