<?xml version="1.0" encoding="utf-8"?>
<!-- Generator: Adobe Illustrator 25.0.1, SVG Export Plug-In . SVG Version: 6.00 Build 0)  -->
<svg version="1.0" id="katman_1" xmlns="http://www.w3.org/2000/svg" xmlns:xlink="http://www.w3.org/1999/xlink" x="0px" y="0px"
	 viewBox="0 0 560 400" style="enable-background:new 0 0 560 400;" xml:space="preserve">
<style type="text/css">
	.st0{fill:#FFFFFF;}
	.st1{fill:#3375BB;}
	.st2{fill:#2E91DB;}
</style>
<g id="Canvas" transform="translate(-347 -344)">
	<g id="logo_solid_side">
		<g id="logo_solid_white" transform="translate(354 351)">
			<g>
				<path id="path0_fill" class="st0" d="M149.1,98.4c32.7,25.4,70.3,23.8,81,23.8c-2.3,144.2-20.2,125-81,165.4
					c-60.8-40.4-78.5-21.2-80.9-165.4C78.9,122.2,116.4,123.7,149.1,98.4z"/>
			</g>
			<g>
				<path id="path1_stroke" class="st1" d="M149.1,98.4l4.7-6.1c-2.8-2.2-6.7-2.2-9.5,0L149.1,98.4z M230.1,122.2l7.7,0.1
					c0-2.1-0.8-4.1-2.2-5.5c-1.5-1.5-3.4-2.3-5.5-2.3V122.2z M149.1,287.6l-4.3,6.4c2.6,1.7,6,1.7,8.6,0L149.1,287.6z M68.2,122.2
					v-7.7c-2.1,0-4.1,0.8-5.5,2.3c-1.5,1.5-2.3,3.5-2.2,5.5L68.2,122.2z M144.4,104.5c35.1,27.2,75.2,25.4,85.7,25.4v-15.5
					c-10.9,0-45.9,1.4-76.3-22.2L144.4,104.5z M222.4,122c-0.6,35.9-2.1,61.2-5,80c-2.9,18.6-7,29.7-12.3,37.5
					c-5.4,8.1-12.1,12.9-22,18.9c-10,6-22.7,12.5-38.3,22.8l8.6,12.9c14.8-9.9,27.2-16.2,37.7-22.4c10.6-6.3,19.9-13.3,26.9-23.5
					c7.1-10.5,11.7-24.1,14.7-43.8c3-19.5,4.6-45.8,5.2-82.1L222.4,122z M153.4,281.2c-15.6-10.3-28.2-16.8-38.3-22.8
					c-9.9-5.9-16.6-10.8-22-18.9c-5.3-7.8-9.4-18.9-12.2-37.5c-2.9-18.8-4.4-44.1-5-80l-15.4,0.3c0.6,36.2,2.2,62.6,5.2,82.1
					c3,19.7,7.6,33.3,14.7,43.8c7,10.2,16.3,17.1,26.8,23.5c10.5,6.3,22.8,12.6,37.6,22.4L153.4,281.2z M68.2,129.9
					c10.4,0,50.6,1.7,85.6-25.4l-9.5-12.2C114,115.8,79,114.4,68.2,114.4V129.9z"/>
			</g>
		</g>
		<g id="labels">
			<g id="TRUST" transform="translate(508 375)">
				<path id="path2_fill" class="st1" d="M658.5,499.8h-15.6v42.3h-10.5v-42.3h-15.4v-8.5h41.4V499.8z M683.3,523.5H675v18.6h-10.5
					v-50.8h18.9c6,0,10.6,1.3,13.9,4c3.3,2.7,4.9,6.5,4.9,11.3c0,3.5-0.8,6.4-2.3,8.7c-1.5,2.3-3.8,4.1-6.8,5.5l11,20.8v0.5h-11.2
					L683.3,523.5z M675,515h8.4c2.6,0,4.7-0.7,6.1-2c1.4-1.3,2.2-3.2,2.2-5.6c0-2.4-0.7-4.3-2.1-5.7c-1.3-1.4-3.4-2.1-6.2-2.1H675
					V515z M748.6,491.3v33.5c0,5.6-1.7,10-5.2,13.2c-3.5,3.2-8.2,4.9-14.2,4.9c-5.9,0-10.6-1.6-14.1-4.7c-3.5-3.1-5.3-7.5-5.3-13
					v-33.9h10.5v33.5c0,3.3,0.8,5.8,2.4,7.3c1.6,1.5,3.8,2.3,6.6,2.3c5.9,0,8.9-3.1,9-9.3v-33.8H748.6z M783.6,528.8
					c0-2-0.7-3.5-2.1-4.5c-1.4-1.1-3.9-2.2-7.5-3.4c-3.6-1.2-6.5-2.4-8.6-3.5c-5.8-3.1-8.7-7.3-8.7-12.6c0-2.7,0.8-5.2,2.3-7.3
					c1.6-2.2,3.8-3.9,6.7-5.1c2.9-1.2,6.2-1.8,9.8-1.8c3.6,0,6.9,0.7,9.7,2c2.8,1.3,5,3.2,6.6,5.6c1.6,2.4,2.4,5.1,2.4,8.2h-10.5
					c0-2.3-0.7-4.1-2.2-5.4c-1.5-1.3-3.5-2-6.2-2c-2.6,0-4.6,0.5-6,1.6c-1.4,1.1-2.1,2.5-2.1,4.3c0,1.7,0.8,3,2.5,4.2
					c1.7,1.1,4.1,2.2,7.4,3.1c6,1.8,10.3,4,13,6.7c2.7,2.7,4.1,6,4.1,9.9c0,4.4-1.7,7.9-5,10.4c-3.3,2.5-7.8,3.7-13.4,3.7
					c-3.9,0-7.5-0.7-10.7-2.1c-3.2-1.4-5.7-3.4-7.4-5.9c-1.7-2.5-2.5-5.4-2.5-8.7h10.5c0,5.6,3.4,8.4,10.1,8.4
					c2.5,0,4.4-0.5,5.8-1.5C782.9,532,783.6,530.6,783.6,528.8z M839.5,499.8h-15.6v42.3h-10.5v-42.3h-15.4v-8.5h41.4V499.8z"/>
			</g>
			<g id="WALLET" transform="translate(534 439)">
				<path id="path3_fill" class="st2" d="M635.7,588.4l1.2,6.2l1.5-5.9l8.6-29.3h3l8.5,29.3l1.5,5.9l1.3-6.2l7.2-29h3.4l-10.2,39.7
					h-3.2l-9-31.1l-1-3.9l-1,3.9l-9.2,31.1h-3.2L625,559.4h3.4L635.7,588.4z M698.7,587.9h-18l-4.1,11.1H673l15-39.7h3.2l15,39.7
					h-3.5L698.7,587.9z M681.7,585.1h15.9l-8-21.6L681.7,585.1z M715.5,596.2h19.6v2.8h-23v-39.7h3.4V596.2z M745,596.2h19.6v2.8
					h-23v-39.7h3.4V596.2z M793,580h-18.6v16.2h21.4v2.8H771v-39.7h24.6v2.9h-21.2v15H793V580z M830.3,562.2h-13.6v36.8h-3.4v-36.8
					h-13.6v-2.9h30.5V562.2z"/>
			</g>
		</g>
	</g>
</g>
</svg>
